HIERARCHY
ROOT Hips
{
	OFFSET 0.00000 0.00000 0.00000
	CHANNELS 6 Xposition Yposition Zposition Zrotation Yrotation Xrotation 
	JOINT LHipJoint
	{
		OFFSET 0 0 0
		CHANNELS 3 Zrotation Yrotation Xrotation
		JOINT LeftUpLeg
		{
			OFFSET 1.80322 -1.53100 0.99595
			CHANNELS 3 Zrotation Yrotation Xrotation
			JOINT LeftLeg
			{
				OFFSET 2.25177 -6.18669 0.00000
				CHANNELS 3 Zrotation Yrotation Xrotation
				JOINT LeftFoot
				{
					OFFSET 2.26601 -6.22582 0.00000
					CHANNELS 3 Zrotation Yrotation Xrotation
					JOINT LeftToeBase
					{
						OFFSET 0.23701 -0.65119 2.15848
						CHANNELS 3 Zrotation Yrotation Xrotation
						End Site
						{
							OFFSET 0.00000 -0.00000 1.12949
						}
					}
				}
			}
		}
	}
	JOINT RHipJoint
	{
		OFFSET 0 0 0
		CHANNELS 3 Zrotation Yrotation Xrotation
		JOINT RightUpLeg
		{
			OFFSET -1.93977 -1.53100 0.99595
			CHANNELS 3 Zrotation Yrotation Xrotation
			JOINT RightLeg
			{
				OFFSET -2.28036 -6.26523 0.00000
				CHANNELS 3 Zrotation Yrotation Xrotation
				JOINT RightFoot
				{
					OFFSET -2.25490 -6.19528 0.00000
					CHANNELS 3 Zrotation Yrotation Xrotation
					JOINT RightToeBase
					{
						OFFSET -0.28375 -0.77960 2.23137
						CHANNELS 3 Zrotation Yrotation Xrotation
						End Site
						{
							OFFSET -0.00000 -0.00000 1.17899
						}
					}
				}
			}
		}
	}
	JOINT LowerBack
	{
		OFFSET 0 0 0
		CHANNELS 3 Zrotation Yrotation Xrotation
		JOINT Spine
		{
			OFFSET -0.00088 2.12090 -0.02806
			CHANNELS 3 Zrotation Yrotation Xrotation
			JOINT Spine1
			{
				OFFSET -0.00286 2.09666 0.12974
				CHANNELS 3 Zrotation Yrotation Xrotation
				JOINT Neck
				{
					OFFSET 0 0 0
					CHANNELS 3 Zrotation Yrotation Xrotation
					JOINT Neck1
					{
						OFFSET 0.07328 1.83526 0.07290
						CHANNELS 3 Zrotation Yrotation Xrotation
						JOINT Head
						{
							OFFSET -0.06683 1.74974 -0.49542
							CHANNELS 3 Zrotation Yrotation Xrotation
							End Site
							{
								OFFSET -0.03398 1.85163 -0.17573
							}
						}
					}
				}
				JOINT LeftShoulder
				{
					OFFSET 0 0 0
					CHANNELS 3 Zrotation Yrotation Xrotation
					JOINT LeftArm
					{
						OFFSET 3.02113 1.18018 0.40602
						CHANNELS 3 Zrotation Yrotation Xrotation
						JOINT LeftForeArm
						{
							OFFSET 4.58538 -0.00000 -0.00000
							CHANNELS 3 Zrotation Yrotation Xrotation
							JOINT LeftHand
							{
								OFFSET 2.68935 -0.00000 -0.00000
								CHANNELS 3 Zrotation Yrotation Xrotation
								JOINT LeftFingerBase
								{
									OFFSET 0 0 0
									CHANNELS 3 Zrotation Yrotation Xrotation
									JOINT LeftHandIndex1
									{
										OFFSET 0.58506 -0.00000 -0.00000
										CHANNELS 3 Zrotation Yrotation Xrotation
										End Site
										{
											OFFSET 0.47169 -0.00000 -0.00000
										}
									}
								}
								JOINT LThumb
								{
									OFFSET 0 0 0
									CHANNELS 3 Zrotation Yrotation Xrotation
									End Site
									{
										OFFSET 0.47889 -0.00000 0.47889
									}
								}
							}
						}
					}
				}
				JOINT RightShoulder
				{
					OFFSET 0 0 0
					CHANNELS 3 Zrotation Yrotation Xrotation
					JOINT RightArm
					{
						OFFSET -2.95074 1.18843 0.31430
						CHANNELS 3 Zrotation Yrotation Xrotation
						JOINT RightForeArm
						{
							OFFSET -4.47450 -0.00000 -0.00000
							CHANNELS 3 Zrotation Yrotation Xrotation
							JOINT RightHand
							{
								OFFSET -2.93896 -0.00000 -0.00000
								CHANNELS 3 Zrotation Yrotation Xrotation
								JOINT RightFingerBase
								{
									OFFSET 0 0 0
									CHANNELS 3 Zrotation Yrotation Xrotation
									JOINT RightHandIndex1
									{
										OFFSET -0.40509 -0.00000 -0.00000
										CHANNELS 3 Zrotation Yrotation Xrotation
										End Site
										{
											OFFSET -0.32660 -0.00000 -0.00000
										}
									}
								}
								JOINT RThumb
								{
									OFFSET 0 0 0
									CHANNELS 3 Zrotation Yrotation Xrotation
									End Site
									{
										OFFSET -0.33158 -0.00000 0.33158
									}
								}
							}
						}
					}
				}
			}
		}
	}
}
MOTION
Frames: 14
Frame Time: .0083333
-4.2277 15.6486 7.1087 -179.4810 194.5810 -171.9550 0.0000 0.0000 0.0000 -23.0457 -11.3056 -24.7851 1.3940 7.4696 21.1143 -0.1020 6.5488 -5.9094 0.5857 4.9003 13.6245 0.0000 0.0000 0.0000 21.3341 1.9107 -1.3921 -2.9568 -10.6247 31.0245 -1.3530 2.5312 -21.3066 -1.0777 6.5988 -18.5321 1.1109 1.4895 -7.9826 -1.8206 1.8797 -5.6980 -2.3744 0.8691 -1.3234 11.4789 4.5872 -12.3666 -4.6071 5.3403 41.3692 -3.2390 3.3238 17.9835 0.0000 0.0000 0.0000 -84.6893 15.1422 9.3984 15.3940 -24.6921 -3.3888 -0.0000 -0.0000 24.4736 2.7964 11.2704 0.5470 -7.1250 0.0000 -0.0000 -21.2060 40.3066 2.5880 0.0000 0.0000 0.0000 87.9531 -3.7039 19.8460 -12.5787 20.6668 -2.3025 0.0000 0.0000 17.3031 -10.8212 -4.6748 0.8925 7.1250 -0.0000 -0.0000 13.0245 -34.5020 3.4306
-4.2125 15.6584 7.2102 -179.1460 194.6520 -172.0960 0.0000 0.0000 0.0000 -23.8140 -10.5728 -24.3100 1.3396 7.3284 20.6919 -0.0762 5.9385 -5.7559 0.5761 4.8606 13.5113 0.0000 0.0000 0.0000 20.6604 1.7822 -2.0123 -3.2573 -11.1003 32.6189 -1.2956 3.0344 -20.7319 -1.1899 6.9222 -19.4851 0.9081 1.4785 -7.9922 -1.9251 1.8759 -5.7316 -2.3691 0.8702 -1.3560 11.4946 4.5917 -12.3353 -4.6345 5.3573 41.3383 -3.2509 3.3291 17.9608 0.0000 -0.0000 0.0000 -84.6161 15.1561 9.6355 15.4264 -24.7368 -3.4024 -0.0000 -0.0000 24.3923 2.7344 11.2890 0.5357 -7.1250 0.0000 -0.0000 -21.2635 40.3185 2.5892 0.0000 -0.0000 0.0000 87.9923 -3.8115 18.7568 -12.1444 20.0208 -2.1515 0.0000 0.0000 18.6349 -10.4453 -4.7879 0.8816 7.1250 -0.0000 -0.0000 13.3479 -34.5966 3.4882
-4.1973 15.6683 7.3093 -178.8760 194.7150 -172.2040 0.0000 0.0000 0.0000 -24.4745 -9.9262 -23.8614 1.2902 7.1972 20.3008 -0.0553 5.4227 -5.6695 0.5721 4.8439 13.4640 0.0000 0.0000 0.0000 20.0585 1.7060 -2.6294 -3.5574 -11.5470 34.1476 -1.2219 3.5016 -20.0302 -1.2909 7.1992 -20.3068 0.7619 1.4712 -8.0042 -2.0029 1.8737 -5.7662 -2.3680 0.8711 -1.3874 11.4996 4.5969 -12.3121 -4.6732 5.3824 41.2931 -3.2642 3.3340 17.9325 -0.0000 -0.0000 0.0000 -84.5507 15.1454 9.8925 15.4683 -24.7944 -3.4199 -0.0000 -0.0000 24.3197 2.6957 11.3033 0.5287 -7.1250 0.0000 -0.0000 -21.3003 40.3285 2.5886 -0.0000 -0.0000 0.0000 87.9986 -3.9132 17.6712 -11.7427 19.4177 -2.0159 0.0000 0.0000 19.9269 -10.0449 -4.9033 0.8674 7.1250 -0.0000 -0.0000 13.6920 -34.6918 3.5500
-4.1825 15.6781 7.4061 -178.6610 194.7720 -172.2830 0.0000 0.0000 0.0000 -25.0403 -9.3884 -23.4201 1.2449 7.0745 19.9361 -0.0390 5.0115 -5.6403 0.5685 4.8291 13.4217 0.0000 0.0000 0.0000 19.5162 1.6746 -3.2472 -3.8557 -11.9659 35.6116 -1.1343 3.9317 -19.2074 -1.3767 7.4250 -20.9808 0.6583 1.4662 -8.0183 -2.0572 1.8721 -5.8019 -2.3664 0.8716 -1.4183 11.4907 4.6021 -12.2984 -4.7180 5.4131 41.2368 -3.2763 3.3380 17.9003 -0.0000 -0.0000 0.0000 -84.4946 15.1136 10.1611 15.5203 -24.8660 -3.4418 -0.0000 -0.0000 24.2592 2.6862 11.3090 0.5271 -7.1250 0.0000 -0.0000 -21.3100 40.3329 2.5875 -0.0000 -0.0000 0.0000 87.9722 -4.0121 16.6097 -11.3753 18.8613 -1.8955 0.0000 0.0000 21.1658 -9.6653 -4.9957 0.8497 7.1250 -0.0000 -0.0000 14.0154 -34.7645 3.6126
-4.1680 15.6878 7.5003 -178.4970 194.8310 -172.3370 0.0000 0.0000 0.0000 -25.5150 -8.9559 -22.9821 1.2034 6.9600 19.5968 -0.0267 4.7114 -5.6685 0.5657 4.8172 13.3880 0.0000 0.0000 0.0000 19.0336 1.6893 -3.8663 -4.1505 -12.3580 37.0104 -1.0350 4.3137 -18.2713 -1.4456 7.6007 -21.5077 0.5911 1.4656 -8.0279 -2.0884 1.8742 -5.8388 -2.3612 0.8733 -1.4524 11.4650 4.6059 -12.2899 -4.7654 5.4471 41.1684 -3.2856 3.3400 17.8619 -0.0000 -0.0000 0.0000 -84.4489 15.0590 10.4355 15.5826 -24.9515 -3.4680 -0.0000 -0.0000 24.2102 2.6981 11.3138 0.5297 -7.1250 0.0000 -0.0000 -21.3016 40.3385 2.5832 -0.0000 -0.0000 0.0000 87.9119 -4.1140 15.5991 -11.0476 18.3612 -1.7909 0.0000 0.0000 22.3268 -9.3172 -5.0656 0.8299 7.1250 -0.0000 -0.0000 14.3095 -34.8162 3.6739
-4.1536 15.6976 7.5920 -178.3740 194.8840 -172.3710 0.0000 0.0000 0.0000 -25.9214 -8.5949 -22.5477 1.1644 6.8500 19.2718 -0.0171 4.4866 -5.7188 0.5608 4.7968 13.3299 0.0000 0.0000 0.0000 18.5976 1.7262 -4.4895 -4.4407 -12.7248 38.3469 -0.9273 4.6436 -17.2332 -1.5066 7.7523 -21.9641 0.5503 1.4638 -8.0342 -2.0979 1.8733 -5.8722 -2.3486 0.8732 -1.4847 11.4295 4.6115 -12.2897 -4.8233 5.4900 41.0880 -3.2959 3.3423 17.8196 0.0000 -0.0000 0.0000 -84.4182 14.9790 10.7088 15.6564 -25.0526 -3.4992 -0.0000 -0.0000 24.1612 2.7406 11.3229 0.5385 -7.1250 0.0000 -0.0000 -21.2690 40.3506 2.5721 0.0000 -0.0000 0.0000 87.8175 -4.2148 14.6570 -10.7635 17.9248 -1.7024 0.0000 0.0000 23.4076 -9.0065 -5.1135 0.8094 7.1250 -0.0000 -0.0000 14.5694 -34.8480 3.7328
-4.1397 15.7073 7.6810 -178.2940 194.9420 -172.3930 0.0000 0.0000 0.0000 -26.2602 -8.2760 -22.1205 1.1279 6.7456 18.9638 -0.0088 4.3127 -5.8010 0.5601 4.7938 13.3213 0.0000 0.0000 0.0000 18.2145 1.7859 -5.1089 -4.7248 -13.0670 39.6199 -0.8134 4.9026 -16.0958 -1.5713 7.9093 -22.4389 0.5364 1.4648 -8.0252 -2.0872 1.8747 -5.9041 -2.3305 0.8738 -1.5235 11.3863 4.6183 -12.2939 -4.8857 5.5381 40.9988 -3.3056 3.3448 17.7738 0.0000 -0.0000 0.0000 -84.3984 14.8824 10.9824 15.7413 -25.1686 -3.5352 -0.0000 -0.0000 24.1029 2.8180 11.3308 0.5541 -7.1250 0.0000 -0.0000 -21.2071 40.3648 2.5559 0.0000 -0.0000 0.0000 87.6949 -4.3172 13.7851 -10.5191 17.5474 -1.6280 0.0000 0.0000 24.4176 -8.7470 -5.1278 0.7879 7.1250 -0.0000 -0.0000 14.7816 -34.8491 3.7898
-4.1254 15.7167 7.7676 -178.2340 194.9920 -172.4100 0.0000 0.0000 0.0000 -26.5692 -7.9611 -21.7077 1.0935 6.6452 18.6685 -0.0004 4.1377 -5.8894 0.5627 4.8048 13.3525 0.0000 0.0000 0.0000 17.8561 1.8362 -5.7275 -5.0022 -13.3862 40.8321 -0.6968 5.1027 -14.8708 -1.6426 8.0781 -22.9515 0.5364 1.4615 -8.0118 -2.0639 1.8699 -5.9244 -2.3075 0.8713 -1.5529 11.3531 4.6295 -12.2997 -4.9683 5.5977 40.8905 -3.3237 3.3504 17.7203 -0.0000 0.0000 0.0000 -84.3869 14.7574 11.2721 15.8412 -25.3049 -3.5778 -0.0000 -0.0000 23.9994 2.9140 11.3652 0.5747 -7.1250 0.0000 -0.0000 -21.1378 40.4054 2.5243 -0.0000 0.0000 0.0000 87.5484 -4.4152 13.0041 -10.3208 17.2399 -1.5687 0.0000 0.0000 25.3155 -8.5623 -5.1021 0.7671 7.1250 -0.0000 -0.0000 14.9256 -34.8149 3.8418
-4.1115 15.7259 7.8514 -178.2210 195.0470 -172.4230 0.0000 0.0000 0.0000 -26.8189 -7.6384 -21.3098 1.0612 6.5496 18.3877 0.0080 3.9672 -5.9891 0.5684 4.8286 13.4204 0.0000 0.0000 0.0000 17.5572 1.9009 -6.3330 -5.2717 -13.6834 41.9837 -0.5802 5.2265 -13.5629 -1.7205 8.2580 -23.5004 0.5685 1.4609 -7.9764 -2.0237 1.8669 -5.9391 -2.2854 0.8692 -1.5881 11.3299 4.6437 -12.3114 -5.0608 5.6614 40.7737 -3.3469 3.3579 17.6653 -0.0000 0.0000 0.0000 -84.3778 14.6184 11.5684 15.9543 -25.4586 -3.6263 -0.0000 -0.0000 23.8594 3.0360 11.3959 0.6004 -7.1250 0.0000 -0.0000 -21.0458 40.4447 2.4905 -0.0000 0.0000 0.0000 87.3865 -4.5077 12.3092 -10.1605 16.9902 -1.5215 0.0000 0.0000 26.1280 -8.4111 -5.0964 0.7525 7.1250 -0.0000 -0.0000 15.0464 -34.8018 3.8797
-4.0978 15.7348 7.9330 -178.2240 195.1010 -172.4400 0.0000 0.0000 0.0000 -27.0428 -7.3157 -20.9126 1.0299 6.4552 18.1109 0.0164 3.8057 -6.0985 0.5775 4.8661 13.5271 0.0000 0.0000 0.0000 17.2852 1.9685 -6.9253 -5.5342 -13.9613 43.0826 -0.4666 5.2918 -12.1815 -1.7949 8.4252 -24.0131 0.6086 1.4589 -7.9225 -1.9755 1.8620 -5.9454 -2.2598 0.8661 -1.6248 11.3159 4.6611 -12.3300 -5.1588 5.7281 40.6487 -3.3734 3.3670 17.6090 0.0000 0.0000 0.0000 -84.3683 14.4680 11.8789 16.0850 -25.6358 -3.6827 -0.0000 -0.0000 23.6706 3.1680 11.4243 0.6281 -7.1250 0.0000 -0.0000 -20.9445 40.4830 2.4563 0.0000 0.0000 0.0000 87.2143 -4.5942 11.7091 -10.0335 16.7919 -1.4846 0.0000 0.0000 26.8217 -8.3352 -5.0894 0.7446 7.1250 -0.0000 -0.0000 15.1061 -34.7911 3.9001
-4.0841 15.7433 8.0122 -178.2410 195.1540 -172.4620 0.0000 0.0000 0.0000 -27.2441 -7.0048 -20.5109 0.9990 6.3606 17.8345 0.0243 3.6650 -6.2156 0.5872 4.9063 13.6415 0.0000 0.0000 0.0000 17.0370 2.0437 -7.5020 -5.7905 -14.2223 44.1352 -0.3592 5.3058 -10.7388 -1.8553 8.5579 -24.4218 0.6533 1.4547 -7.8515 -1.9207 1.8542 -5.9442 -2.2306 0.8616 -1.6634 11.3100 4.6805 -12.3546 -5.2596 5.7952 40.5166 -3.4020 3.3770 17.5512 -0.0000 -0.0000 0.0000 -84.3565 14.3111 12.2106 16.2373 -25.8413 -3.7488 -0.0000 -0.0000 23.4197 3.2965 11.4576 0.6555 -7.1250 0.0000 -0.0000 -20.8476 40.5256 2.4206 -0.0000 -0.0000 0.0000 87.0350 -4.6735 11.2156 -9.9411 16.6474 -1.4580 0.0000 0.0000 27.3642 -8.3071 -5.1238 0.7471 7.1250 -0.0000 -0.0000 15.1355 -34.8234 3.8958
-4.0706 15.7513 8.0894 -178.2440 195.1960 -172.4910 0.0000 0.0000 0.0000 -27.4535 -6.7238 -20.0923 0.9669 6.2605 17.5421 0.0314 3.5547 -6.3397 0.6003 4.9598 13.7940 0.0000 0.0000 0.0000 16.7797 2.1163 -8.0706 -6.0437 -14.4706 45.1569 -0.2603 5.2806 -9.2451 -1.8929 8.6393 -24.6734 0.6782 1.4423 -7.7714 -1.8673 1.8368 -5.9375 -2.1924 0.8529 -1.7020 11.3115 4.7025 -12.3791 -5.3594 5.8628 40.3775 -3.4311 3.3884 17.4902 0.0000 -0.0000 0.0000 -84.3402 14.1567 12.5725 16.4171 -26.0829 -3.8275 -0.0000 -0.0000 23.0962 3.4170 11.5030 0.6822 -7.1250 0.0000 -0.0000 -20.7610 40.5786 2.3809 0.0000 -0.0000 0.0000 86.8505 -4.7497 10.8433 -9.8836 16.5573 -1.4416 0.0000 0.0000 27.7296 -8.3326 -5.1931 0.7595 7.1250 -0.0000 -0.0000 15.1283 -34.8921 3.8677
-4.0573 15.7586 8.1643 -178.2310 195.2330 -172.5220 0.0000 0.0000 0.0000 -27.6669 -6.4894 -19.6541 0.9331 6.1531 17.2293 0.0372 3.4935 -6.4694 0.6144 5.0168 13.9566 0.0000 0.0000 0.0000 16.5141 2.2010 -8.6324 -6.2967 -14.7098 46.1612 -0.1724 5.2091 -7.7136 -1.9006 8.6558 -24.7244 0.6808 1.4234 -7.6867 -1.8159 1.8121 -5.9282 -2.1442 0.8412 -1.7415 11.3174 4.7262 -12.3954 -5.4533 5.9294 40.2295 -3.4579 3.4008 17.4225 0.0000 -0.0000 0.0000 -84.3161 14.0114 12.9718 16.6263 -26.3625 -3.9200 -0.0000 -0.0000 22.7025 3.5187 11.5629 0.7062 -7.1250 0.0000 -0.0000 -20.6947 40.6438 2.3374 0.0000 -0.0000 0.0000 86.6642 -4.8207 10.5855 -9.8563 16.5145 -1.4338 0.0000 0.0000 27.9183 -8.4085 -5.2878 0.7805 7.1250 -0.0000 -0.0000 15.0857 -34.9883 3.8196
-4.0445 15.7652 8.2371 -178.1960 195.2640 -172.5540 0.0000 0.0000 0.0000 -27.8928 -6.2995 -19.2017 0.8973 6.0371 16.8922 0.0412 3.4743 -6.5836 0.6257 5.0616 14.0844 0.0000 0.0000 0.0000 16.2295 2.2928 -9.1950 -6.5536 -14.9442 47.1652 -0.0974 5.0946 -6.1568 -1.8813 8.6143 -24.5960 0.6524 1.3968 -7.6097 -1.7681 1.7789 -5.9137 -2.0826 0.8263 -1.7724 11.3288 4.7517 -12.4076 -5.5451 5.9958 40.0716 -3.4844 3.4142 17.3488 0.0000 -0.0000 0.0000 -84.2836 13.8658 13.4117 16.8592 -26.6718 -4.0239 -0.0000 -0.0000 22.2480 3.6251 11.6250 0.7314 -7.1250 0.0000 -0.0000 -20.6250 40.7116 2.2924 0.0000 -0.0000 0.0000 86.4763 -4.8808 10.4451 -9.8599 16.5202 -1.4349 0.0000 0.0000 27.9178 -8.5211 -5.4036 0.8083 7.1250 -0.0000 -0.0000 15.0173 -35.1070 3.7564
